<svg width="53" height="36" viewBox="0 0 53 36" fill="none" xmlns="http://www.w3.org/2000/svg">
<path d="M49.0307 0.965454H3.96931C1.77705 0.965454 0 2.70898 0 4.85987V31.1402C0 33.291 1.77705 35.0346 3.96931 35.0346H49.0307C51.2228 35.0346 53 33.2911 53 31.1402V4.85987C53 2.70898 51.2229 0.965454 49.0307 0.965454Z" fill="#73AF00"/>
<path d="M26.0248 5.73195L6.76514 17.234C6.18017 17.5833 6.18017 18.4163 6.76514 18.7657L26.0248 30.2679C26.3167 30.4422 26.6832 30.4422 26.9751 30.2679L46.2348 18.7658C46.8198 18.4165 46.8198 17.5835 46.2348 17.2341L26.9751 5.73195C26.6833 5.55777 26.3167 5.55777 26.0248 5.73195Z" fill="#FFE15A"/>
<path d="M26.5 25.1722C30.5373 25.1722 33.8102 21.961 33.8102 17.9999C33.8102 14.0387 30.5373 10.8275 26.5 10.8275C22.4626 10.8275 19.1897 14.0387 19.1897 17.9999C19.1897 21.961 22.4626 25.1722 26.5 25.1722Z" fill="#41479B"/>
<path d="M20.2269 14.3307C19.882 14.8973 19.6157 15.5129 19.4397 16.1667C23.4922 15.8675 29.4871 16.9798 33.3027 20.6124C33.5518 19.9887 33.7163 19.3243 33.7778 18.6297C29.838 15.3763 24.3912 14.2194 20.2269 14.3307Z" fill="#F5F5F5"/>
<path d="M26.8027 20.4475L26.9973 21.0201L27.6125 21.0248C27.6921 21.0254 27.7251 21.1252 27.661 21.1716L27.1661 21.5302L27.3517 22.1056C27.3757 22.1802 27.2892 22.2418 27.2245 22.1963L26.724 21.8453L26.2235 22.1963C26.1587 22.2417 26.0723 22.1802 26.0963 22.1056L26.2819 21.5302L25.787 21.1716C25.7229 21.1252 25.7559 21.0254 25.8355 21.0248L26.4507 21.0201L26.6453 20.4475C26.6706 20.3733 26.7774 20.3733 26.8027 20.4475Z" fill="#F5F5F5"/>
<path d="M29.194 21.9288L29.2777 22.1752L29.5425 22.1772C29.5768 22.1774 29.591 22.2204 29.5634 22.2404L29.3504 22.3946L29.4302 22.6424C29.4405 22.6745 29.4034 22.701 29.3753 22.6814L29.1599 22.5303L28.9445 22.6814C28.9167 22.701 28.8794 22.6745 28.8897 22.6424L28.9696 22.3946L28.7565 22.2404C28.7289 22.2205 28.7432 22.1775 28.7774 22.1772L29.0422 22.1752L29.126 21.9288C29.137 21.8968 29.1831 21.8968 29.194 21.9288Z" fill="#F5F5F5"/>
<path d="M25.7689 19.3597L25.8526 19.6061L26.1174 19.6081C26.1517 19.6083 26.166 19.6513 26.1383 19.6713L25.9253 19.8256L26.0051 20.0733C26.0153 20.1054 25.9783 20.1319 25.9503 20.1123L25.7349 19.9613L25.5195 20.1123C25.4917 20.1319 25.4544 20.1054 25.4646 20.0733L25.5445 19.8256L25.3314 19.6713C25.3039 19.6514 25.3181 19.6084 25.3523 19.6081L25.6171 19.6061L25.7009 19.3597C25.7119 19.328 25.758 19.328 25.7689 19.3597Z" fill="#F5F5F5"/>
<path d="M21.1307 19.061L21.2145 19.3073L21.4793 19.3094C21.5135 19.3096 21.5278 19.3525 21.5002 19.3725L21.2872 19.5268L21.367 19.7745C21.3772 19.8066 21.3402 19.8331 21.3121 19.8135L21.0967 19.6625L20.8813 19.8135C20.8534 19.833 20.8162 19.8066 20.8265 19.7745L20.9063 19.5268L20.6933 19.3725C20.6656 19.3526 20.6799 19.3097 20.7142 19.3094L20.979 19.3073L21.0627 19.061C21.0739 19.0292 21.1199 19.0292 21.1307 19.061Z" fill="#F5F5F5"/>
<path d="M25.0108 21.8437L25.0946 22.0901L25.3594 22.0922C25.3936 22.0924 25.4079 22.1353 25.3803 22.1553L25.1672 22.3096L25.247 22.5573C25.2573 22.5894 25.2202 22.6159 25.1923 22.5963L24.9769 22.4453L24.7615 22.5963C24.7336 22.6159 24.6963 22.5894 24.7066 22.5573L24.7864 22.3096L24.5734 22.1553C24.5458 22.1354 24.56 22.0925 24.5943 22.0922L24.8591 22.0901L24.9428 21.8437C24.954 21.8119 25.0001 21.8119 25.0108 21.8437Z" fill="#F5F5F5"/>
<path d="M22.876 18.889L22.9445 19.0905L23.1611 19.0922C23.189 19.0924 23.2007 19.1276 23.1783 19.1439L23.0041 19.2701L23.0694 19.4726C23.0779 19.4988 23.0474 19.5205 23.0246 19.5045L22.8484 19.381L22.6722 19.5045C22.6493 19.5205 22.619 19.4988 22.6274 19.4726L22.6927 19.2701L22.5185 19.1439C22.496 19.1276 22.5075 19.0924 22.5356 19.0922L22.7522 19.0905L22.8207 18.889C22.8295 18.863 22.8671 18.863 22.876 18.889Z" fill="#F5F5F5"/>
<path d="M29.3796 14.729L29.4653 14.9811L29.7361 14.9831C29.7712 14.9833 29.7857 15.0273 29.7574 15.0478L29.5396 15.2057L29.6213 15.4591C29.6319 15.4919 29.5938 15.519 29.5653 15.499L29.3449 15.3444L29.1245 15.499C29.0959 15.5191 29.058 15.4918 29.0685 15.4591L29.1502 15.2057L28.9324 15.0478C28.9041 15.0274 28.9187 14.9835 28.9537 14.9831L29.2245 14.9811L29.3102 14.729C29.3214 14.6961 29.3685 14.6961 29.3796 14.729Z" fill="#F5F5F5"/>
<path d="M21.429 17.6562L21.4976 17.8577L21.7141 17.8594C21.7421 17.8596 21.7538 17.8947 21.7313 17.9111L21.5571 18.0372L21.6224 18.2397C21.6309 18.2659 21.6004 18.2877 21.5776 18.2716L21.4014 18.1481L21.2252 18.2716C21.2023 18.2877 21.172 18.2659 21.1804 18.2397L21.2457 18.0372L21.0715 17.9111C21.0489 17.8947 21.0605 17.8597 21.0887 17.8594L21.3052 17.8577L21.3737 17.6562C21.3825 17.6301 21.4201 17.6301 21.429 17.6562Z" fill="#F5F5F5"/>
<path d="M22.4744 20.4965L22.5781 20.8017L22.9061 20.8041C22.9485 20.8044 22.9661 20.8576 22.932 20.8823L22.6681 21.0735L22.7671 21.3802C22.7799 21.4199 22.7338 21.4528 22.6993 21.4285L22.4324 21.2414L22.1655 21.4285C22.1311 21.4527 22.0849 21.4199 22.0977 21.3802L22.1967 21.0735L21.9328 20.8823C21.8987 20.8576 21.9163 20.8044 21.9587 20.8041L22.2866 20.8017L22.3904 20.4965C22.4041 20.4569 22.4611 20.4569 22.4744 20.4965Z" fill="#F5F5F5"/>
<path d="M30.527 21.9927L30.5923 22.1847L30.7986 22.1862C30.8253 22.1864 30.8364 22.2199 30.815 22.2354L30.6491 22.3556L30.7113 22.5486C30.7192 22.5736 30.6904 22.5942 30.6685 22.579L30.5007 22.4613L30.3328 22.579C30.3111 22.5942 30.2821 22.5736 30.2901 22.5486L30.3523 22.3556L30.1863 22.2354C30.1649 22.2199 30.176 22.1864 30.2027 22.1862L30.409 22.1847L30.4742 21.9927C30.4827 21.9678 30.5186 21.9678 30.527 21.9927Z" fill="#F5F5F5"/>
<path d="M31.249 20.5272L31.3327 20.7736L31.5975 20.7756C31.6318 20.7758 31.6461 20.8188 31.6185 20.8388L31.4054 20.993L31.4852 21.2408C31.4955 21.2728 31.4584 21.2994 31.4305 21.2798L31.2151 21.1287L30.9996 21.2798C30.9718 21.2994 30.9345 21.2728 30.9449 21.2408L31.0247 20.993L30.8116 20.8388C30.7841 20.8189 30.7983 20.7759 30.8326 20.7756L31.0974 20.7736L31.1811 20.5272C31.1921 20.4952 31.2381 20.4952 31.249 20.5272Z" fill="#F5F5F5"/>
</svg>
