<svg width="24" height="12" viewBox="0 0 24 12" fill="none" xmlns="http://www.w3.org/2000/svg">
<path d="M24 1.5C24 0.6 23.4 0 22.5 0H1.5C0.6 0 0 0.6 0 1.5V10.5C0 11.4 0.6 12 1.5 12H22.5C23.4 12 24 11.4 24 10.5V1.5ZM22.5 10.5H1.5V1.5H22.5V10.5Z" fill="#0A3A7D"/>
<path d="M9 6C9 6.39782 8.84196 6.77936 8.56066 7.06066C8.27936 7.34196 7.89782 7.5 7.5 7.5C7.10218 7.5 6.72064 7.34196 6.43934 7.06066C6.15804 6.77936 6 6.39782 6 6C6 5.60218 6.15804 5.22064 6.43934 4.93934C6.72064 4.65804 7.10218 4.5 7.5 4.5C7.89782 4.5 8.27936 4.65804 8.56066 4.93934C8.84196 5.22064 9 5.60218 9 6Z" fill="#0A3A7D"/>
<path d="M13.5 6C13.5 6.39782 13.342 6.77936 13.0607 7.06066C12.7794 7.34196 12.3978 7.5 12 7.5C11.6022 7.5 11.2206 7.34196 10.9393 7.06066C10.658 6.77936 10.5 6.39782 10.5 6C10.5 5.60218 10.658 5.22064 10.9393 4.93934C11.2206 4.65804 11.6022 4.5 12 4.5C12.3978 4.5 12.7794 4.65804 13.0607 4.93934C13.342 5.22064 13.5 5.60218 13.5 6Z" fill="#0A3A7D"/>
<path d="M18 6C18 6.39782 17.842 6.77936 17.5607 7.06066C17.2794 7.34196 16.8978 7.5 16.5 7.5C16.1022 7.5 15.7206 7.34196 15.4393 7.06066C15.158 6.77936 15 6.39782 15 6C15 5.60218 15.158 5.22064 15.4393 4.93934C15.7206 4.65804 16.1022 4.5 16.5 4.5C16.8978 4.5 17.2794 4.65804 17.5607 4.93934C17.842 5.22064 18 5.60218 18 6Z" fill="#0A3A7D"/>
</svg>
