<svg width="53" height="36" viewBox="0 0 53 36" fill="none" xmlns="http://www.w3.org/2000/svg">
<path d="M49.0307 0.310303H3.96931C1.77705 0.310303 0 2.12088 0 4.3545V31.6455C0 33.879 1.77705 35.6897 3.96931 35.6897H49.0307C51.2228 35.6897 53 33.8791 53 31.6455V4.3545C53 2.12088 51.2229 0.310303 49.0307 0.310303Z" fill="#F5F5F5"/>
<path d="M0.218262 3.03182H52.7815C52.2437 1.44799 50.7679 0.310303 49.0306 0.310303H3.96925C2.23185 0.310303 0.756232 1.44799 0.218262 3.03182Z" fill="#FF4B55"/>
<path d="M53 11.1962H0V13.9176H53V11.1962Z" fill="#FF4B55"/>
<path d="M53 5.75293H0V8.47434H53V5.75293Z" fill="#FF4B55"/>
<path d="M0 18.4296C0 18.9438 0.409197 19.3607 0.913836 19.3607H53V16.6392H0V18.4296Z" fill="#FF4B55"/>
<path d="M53 27.5259H0V30.2474H53V27.5259Z" fill="#FF4B55"/>
<path d="M52.7816 32.968H0.218262C0.756232 34.5518 2.23195 35.6895 3.96925 35.6895H49.0306C50.768 35.6895 52.2437 34.5518 52.7816 32.968Z" fill="#FF4B55"/>
<path d="M53 22.0826H0V24.8041H53V22.0826Z" fill="#FF4B55"/>
<path d="M0.913836 19.3608H23.7587C24.2633 19.3608 24.6725 18.9439 24.6725 18.4297V1.24138C24.6725 0.727115 24.2633 0.310303 23.7587 0.310303H3.96931C1.77705 0.310408 0 2.12099 0 4.35461V18.4297C0 18.944 0.409197 19.3608 0.913836 19.3608Z" fill="#41479B"/>
<path d="M2.56602 2.44735L2.76829 3.0654L3.40771 3.07036C3.49052 3.0711 3.52478 3.17867 3.45822 3.22877L2.94385 3.61574L3.1368 4.23684C3.16186 4.31721 3.0719 4.38387 3.00451 4.33472L2.48435 3.95598L1.96418 4.33482C1.89679 4.38397 1.80704 4.31731 1.83189 4.23695L2.02484 3.61584L1.51047 3.22888C1.44391 3.17867 1.47817 3.0711 1.56099 3.07046L2.2004 3.06551L2.40267 2.44746C2.42876 2.3673 2.53973 2.3673 2.56602 2.44735Z" fill="#F5F5F5"/>
<path d="M2.56602 5.68031L2.76829 6.29836L3.40771 6.30331C3.49052 6.30405 3.52478 6.41152 3.45822 6.46173L2.94385 6.8488L3.1368 7.4699C3.16186 7.55027 3.0719 7.61693 3.00451 7.56778L2.48435 7.18904L1.96418 7.56789C1.89679 7.61693 1.80704 7.55038 1.83189 7.47001L2.02484 6.8489L1.51047 6.46183C1.44391 6.41163 1.47817 6.30416 1.56099 6.30342L2.2004 6.29846L2.40267 5.68041C2.42876 5.60036 2.53973 5.60036 2.56602 5.68031Z" fill="#F5F5F5"/>
<path d="M2.56602 8.91342L2.76829 9.53147L3.40771 9.53642C3.49052 9.53716 3.52478 9.64463 3.45822 9.69484L2.94385 10.0819L3.1368 10.703C3.16186 10.7834 3.0719 10.85 3.00451 10.8009L2.48435 10.4221L1.96418 10.801C1.89679 10.85 1.80704 10.7836 1.83189 10.7031L2.02484 10.082L1.51047 9.69494C1.44391 9.64474 1.47817 9.53727 1.56099 9.53653L2.2004 9.53157L2.40267 8.91352C2.42876 8.83337 2.53973 8.83337 2.56602 8.91342Z" fill="#F5F5F5"/>
<path d="M2.56602 12.1465L2.76829 12.7645L3.40771 12.7695C3.49052 12.7702 3.52478 12.8778 3.45822 12.9279L2.94385 13.3149L3.1368 13.936C3.16186 14.0164 3.0719 14.0831 3.00451 14.0339L2.48435 13.6552L1.96418 14.034C1.89679 14.0831 1.80704 14.0165 1.83189 13.9361L2.02484 13.315L1.51047 12.928C1.44391 12.878 1.47817 12.7703 1.56099 12.7696L2.2004 12.7646L2.40267 12.1466C2.42876 12.0664 2.53973 12.0664 2.56602 12.1465Z" fill="#F5F5F5"/>
<path d="M2.56602 15.3795L2.76829 15.9976L3.40771 16.0025C3.49052 16.0033 3.52478 16.1107 3.45822 16.1609L2.94385 16.548L3.1368 17.1691C3.16186 17.2495 3.0719 17.3161 3.00451 17.267L2.48435 16.8883L1.96418 17.2671C1.89679 17.3161 1.80704 17.2496 1.83189 17.1692L2.02484 16.5481L1.51047 16.161C1.44391 16.1108 1.47817 16.0034 1.56099 16.0026L2.2004 15.9977L2.40267 15.3796C2.42876 15.2996 2.53973 15.2996 2.56602 15.3795Z" fill="#F5F5F5"/>
<path d="M5.02891 4.03237L5.23118 4.65042L5.87059 4.65537C5.95341 4.65611 5.98767 4.76369 5.92111 4.81379L5.40674 5.20086L5.59969 5.82196C5.62475 5.90233 5.53479 5.96899 5.4674 5.91984L4.94724 5.54099L4.42707 5.91984C4.35968 5.96888 4.26993 5.90233 4.29478 5.82196L4.48773 5.20086L3.97336 4.81379C3.9068 4.76359 3.94106 4.65611 4.02388 4.65537L4.66329 4.65042L4.86556 4.03237C4.89165 3.95243 5.00272 3.95243 5.02891 4.03237Z" fill="#F5F5F5"/>
<path d="M5.02891 7.26548L5.23118 7.88353L5.87059 7.88849C5.95341 7.88923 5.98767 7.9968 5.92111 8.0469L5.40674 8.43397L5.59969 9.05508C5.62475 9.13544 5.53479 9.2021 5.4674 9.15295L4.94724 8.77411L4.42707 9.15295C4.35968 9.20199 4.26993 9.13555 4.29478 9.05508L4.48773 8.43397L3.97336 8.0469C3.9068 7.99691 3.94106 7.88923 4.02388 7.88849L4.66329 7.88353L4.86556 7.26548C4.89165 7.18543 5.00272 7.18543 5.02891 7.26548Z" fill="#F5F5F5"/>
<path d="M5.02891 10.4985L5.23118 11.1166L5.87059 11.1215C5.95341 11.1223 5.98767 11.2297 5.92111 11.2799L5.40674 11.667L5.59969 12.2881C5.62475 12.3685 5.53479 12.4351 5.4674 12.386L4.94724 12.0071L4.42707 12.386C4.35968 12.435 4.26993 12.3685 4.29478 12.2881L4.48773 11.667L3.97336 11.2799C3.9068 11.2297 3.94106 11.1223 4.02388 11.1215L4.66329 11.1166L4.86556 10.4985C4.89165 10.4185 5.00272 10.4185 5.02891 10.4985Z" fill="#F5F5F5"/>
<path d="M5.02891 13.7316L5.23118 14.3496L5.87059 14.3546C5.95341 14.3553 5.98767 14.4628 5.92111 14.513L5.40674 14.9001L5.59969 15.5212C5.62475 15.6015 5.53479 15.6682 5.4674 15.6191L4.94724 15.2402L4.42707 15.6191C4.35968 15.6682 4.26993 15.6015 4.29478 15.5212L4.48773 14.9001L3.97336 14.513C3.9068 14.4628 3.94106 14.3553 4.02388 14.3546L4.66329 14.3496L4.86556 13.7316C4.89165 13.6516 5.00272 13.6516 5.02891 13.7316Z" fill="#F5F5F5"/>
<path d="M7.4918 2.44725L7.69407 3.06529L8.33349 3.07025C8.4163 3.07099 8.45056 3.17857 8.384 3.22866L7.86963 3.61563L8.06259 4.23673C8.08764 4.3171 7.99768 4.38376 7.93029 4.33461L7.41013 3.95577L6.88996 4.33461C6.82257 4.38376 6.73282 4.3171 6.75767 4.23673L6.95062 3.61563L6.43625 3.22866C6.36969 3.17846 6.40396 3.07088 6.48677 3.07025L7.12618 3.06529L7.32845 2.44725C7.35454 2.36719 7.46561 2.36719 7.4918 2.44725Z" fill="#F5F5F5"/>
<path d="M7.4918 5.68032L7.69407 6.29837L8.33349 6.30332C8.4163 6.30406 8.45056 6.41154 8.384 6.46174L7.86963 6.84881L8.06259 7.46991C8.08764 7.55028 7.99768 7.61694 7.93029 7.56779L7.41013 7.18894L6.88996 7.56779C6.82257 7.61683 6.73282 7.55028 6.75767 7.46991L6.95062 6.84881L6.43625 6.46174C6.36969 6.41154 6.40396 6.30406 6.48677 6.30332L7.12618 6.29837L7.32845 5.68032C7.35454 5.60038 7.46561 5.60038 7.4918 5.68032Z" fill="#F5F5F5"/>
<path d="M7.4918 8.91343L7.69407 9.53148L8.33349 9.53644C8.4163 9.53717 8.45056 9.64465 8.384 9.69485L7.86963 10.0819L8.06259 10.703C8.08764 10.7834 7.99768 10.85 7.93029 10.8009L7.41013 10.4221L6.88996 10.8009C6.82257 10.8499 6.73282 10.7835 6.75767 10.703L6.95062 10.0819L6.43625 9.69485C6.36969 9.64465 6.40396 9.53717 6.48677 9.53644L7.12618 9.53148L7.32845 8.91343C7.35454 8.83338 7.46561 8.83338 7.4918 8.91343Z" fill="#F5F5F5"/>
<path d="M7.4918 12.1465L7.69407 12.7645L8.33349 12.7695C8.4163 12.7702 8.45056 12.8778 8.384 12.9279L7.86963 13.315L8.06259 13.9361C8.08764 14.0164 7.99768 14.0831 7.93029 14.0339L7.41013 13.6551L6.88996 14.0339C6.82257 14.083 6.73282 14.0164 6.75767 13.9361L6.95062 13.315L6.43625 12.9279C6.36969 12.8779 6.40396 12.7702 6.48677 12.7695L7.12618 12.7645L7.32845 12.1465C7.35454 12.0664 7.46561 12.0664 7.4918 12.1465Z" fill="#F5F5F5"/>
<path d="M7.4918 15.3795L7.69407 15.9976L8.33349 16.0025C8.4163 16.0033 8.45056 16.1108 8.384 16.161L7.86963 16.548L8.06259 17.1691C8.08764 17.2495 7.99768 17.3162 7.93029 17.267L7.41013 16.8882L6.88996 17.267C6.82257 17.316 6.73282 17.2495 6.75767 17.1691L6.95062 16.548L6.43625 16.161C6.36969 16.1108 6.40396 16.0033 6.48677 16.0025L7.12618 15.9976L7.32845 15.3795C7.35454 15.2996 7.46561 15.2996 7.4918 15.3795Z" fill="#F5F5F5"/>
<path d="M9.95494 4.03237L10.1572 4.65042L10.7966 4.65537C10.8794 4.65611 10.9137 4.76369 10.8471 4.81379L10.3328 5.20086L10.5257 5.82196C10.5508 5.90233 10.4608 5.96899 10.3934 5.91984L9.87326 5.54099L9.3531 5.91984C9.28571 5.96888 9.19596 5.90233 9.2208 5.82196L9.41376 5.20086L8.89939 4.81379C8.83283 4.76359 8.86709 4.65611 8.9499 4.65537L9.58932 4.65042L9.79159 4.03237C9.81757 3.95243 9.92875 3.95243 9.95494 4.03237Z" fill="#F5F5F5"/>
<path d="M9.95494 7.26548L10.1572 7.88353L10.7966 7.88849C10.8794 7.88923 10.9137 7.9968 10.8471 8.0469L10.3328 8.43397L10.5257 9.05508C10.5508 9.13544 10.4608 9.2021 10.3934 9.15295L9.87326 8.77411L9.3531 9.15295C9.28571 9.20199 9.19596 9.13555 9.2208 9.05508L9.41376 8.43397L8.89939 8.0469C8.83283 7.99691 8.86709 7.88923 8.9499 7.88849L9.58932 7.88353L9.79159 7.26548C9.81757 7.18543 9.92875 7.18543 9.95494 7.26548Z" fill="#F5F5F5"/>
<path d="M9.95494 10.4985L10.1572 11.1166L10.7966 11.1215C10.8794 11.1223 10.9137 11.2297 10.8471 11.2799L10.3328 11.667L10.5257 12.2881C10.5508 12.3685 10.4608 12.4351 10.3934 12.386L9.87326 12.0071L9.3531 12.386C9.28571 12.435 9.19596 12.3685 9.2208 12.2881L9.41376 11.667L8.89939 11.2799C8.83283 11.2297 8.86709 11.1223 8.9499 11.1215L9.58932 11.1166L9.79159 10.4985C9.81757 10.4185 9.92875 10.4185 9.95494 10.4985Z" fill="#F5F5F5"/>
<path d="M9.95494 13.7316L10.1572 14.3496L10.7966 14.3546C10.8794 14.3553 10.9137 14.4628 10.8471 14.513L10.3328 14.9001L10.5257 15.5212C10.5508 15.6015 10.4608 15.6682 10.3934 15.6191L9.87326 15.2402L9.3531 15.6191C9.28571 15.6682 9.19596 15.6015 9.2208 15.5212L9.41376 14.9001L8.89939 14.513C8.83283 14.4628 8.86709 14.3553 8.9499 14.3546L9.58932 14.3496L9.79159 13.7316C9.81757 13.6516 9.92875 13.6516 9.95494 13.7316Z" fill="#F5F5F5"/>
<path d="M12.4179 2.44723L12.6202 3.06528L13.2596 3.07024C13.3424 3.07097 13.3767 3.17855 13.3101 3.22865L12.7958 3.61561L12.9887 4.23672C13.0138 4.31709 12.9238 4.38374 12.8564 4.33459L12.3362 3.95586L11.816 4.3347C11.7486 4.38385 11.6588 4.31719 11.6837 4.23682L11.8766 3.61572L11.3623 3.22875C11.2957 3.17855 11.33 3.07097 11.4128 3.07034L12.0522 3.06538L12.2545 2.44734C12.2807 2.36718 12.3917 2.36718 12.4179 2.44723Z" fill="#F5F5F5"/>
<path d="M12.4179 5.68032L12.6202 6.29837L13.2596 6.30332C13.3424 6.30406 13.3767 6.41154 13.3101 6.46174L12.7958 6.84881L12.9887 7.46991C13.0138 7.55028 12.9238 7.61694 12.8564 7.56779L12.3362 7.18894L11.816 7.56779C11.7486 7.61683 11.6588 7.55028 11.6837 7.46991L11.8766 6.84881L11.3623 6.46174C11.2957 6.41154 11.33 6.30406 11.4128 6.30332L12.0522 6.29837L12.2545 5.68032C12.2807 5.60038 12.3917 5.60038 12.4179 5.68032Z" fill="#F5F5F5"/>
<path d="M12.4179 8.91344L12.6202 9.53149L13.2596 9.53645C13.3424 9.53719 13.3767 9.64466 13.3101 9.69486L12.7958 10.0819L12.9887 10.703C13.0138 10.7834 12.9238 10.8501 12.8564 10.8009L12.3362 10.422L11.816 10.8008C11.7486 10.8499 11.6588 10.7833 11.6837 10.7029L11.8766 10.0818L11.3623 9.69476C11.2957 9.64455 11.33 9.53708 11.4128 9.53634L12.0522 9.53139L12.2545 8.91334C12.2807 8.83339 12.3917 8.83339 12.4179 8.91344Z" fill="#F5F5F5"/>
<path d="M12.4179 12.1465L12.6202 12.7645L13.2596 12.7695C13.3424 12.7702 13.3767 12.8778 13.3101 12.9279L12.7958 13.315L12.9887 13.9361C13.0138 14.0164 12.9238 14.0831 12.8564 14.0339L12.3362 13.6551L11.816 14.0339C11.7486 14.083 11.6588 14.0164 11.6837 13.9361L11.8766 13.315L11.3623 12.9279C11.2957 12.8779 11.33 12.7702 11.4128 12.7695L12.0522 12.7645L12.2545 12.1465C12.2807 12.0664 12.3917 12.0664 12.4179 12.1465Z" fill="#F5F5F5"/>
<path d="M12.4179 15.3795L12.6202 15.9976L13.2596 16.0025C13.3424 16.0033 13.3767 16.1108 13.3101 16.161L12.7958 16.548L12.9887 17.1691C13.0138 17.2495 12.9238 17.3162 12.8564 17.267L12.3362 16.8882L11.816 17.267C11.7486 17.316 11.6588 17.2495 11.6837 17.1691L11.8766 16.548L11.3623 16.161C11.2957 16.1108 11.33 16.0033 11.4128 16.0025L12.0522 15.9976L12.2545 15.3795C12.2807 15.2996 12.3917 15.2996 12.4179 15.3795Z" fill="#F5F5F5"/>
<path d="M14.881 4.03237L15.0832 4.65042L15.7227 4.65537C15.8055 4.65611 15.8397 4.76369 15.7732 4.81379L15.2588 5.20086L15.4517 5.82196C15.4768 5.90233 15.3868 5.96899 15.3195 5.91984L14.7993 5.54099L14.2791 5.91984C14.2117 5.96888 14.122 5.90233 14.1468 5.82196L14.3398 5.20086L13.8254 4.81379C13.7589 4.76359 13.7931 4.65611 13.8759 4.65537L14.5153 4.65042L14.7176 4.03237C14.7438 3.95243 14.8548 3.95243 14.881 4.03237Z" fill="#F5F5F5"/>
<path d="M14.881 7.26548L15.0832 7.88353L15.7227 7.88849C15.8055 7.88923 15.8397 7.9968 15.7732 8.0469L15.2588 8.43397L15.4517 9.05508C15.4768 9.13544 15.3868 9.2021 15.3195 9.15295L14.7993 8.77411L14.2791 9.15295C14.2117 9.20199 14.122 9.13555 14.1468 9.05508L14.3398 8.43397L13.8254 8.0469C13.7589 7.99691 13.7931 7.88923 13.8759 7.88849L14.5153 7.88353L14.7176 7.26548C14.7438 7.18543 14.8548 7.18543 14.881 7.26548Z" fill="#F5F5F5"/>
<path d="M14.881 10.4985L15.0832 11.1166L15.7227 11.1215C15.8055 11.1223 15.8397 11.2297 15.7732 11.2799L15.2588 11.667L15.4517 12.2881C15.4768 12.3685 15.3868 12.4351 15.3195 12.386L14.7993 12.0071L14.2791 12.386C14.2117 12.435 14.122 12.3685 14.1468 12.2881L14.3398 11.667L13.8254 11.2799C13.7589 11.2297 13.7931 11.1223 13.8759 11.1215L14.5153 11.1166L14.7176 10.4985C14.7438 10.4185 14.8548 10.4185 14.881 10.4985Z" fill="#F5F5F5"/>
<path d="M14.881 13.7316L15.0832 14.3496L15.7227 14.3546C15.8055 14.3553 15.8397 14.4628 15.7732 14.513L15.2588 14.9001L15.4517 15.5212C15.4768 15.6015 15.3868 15.6682 15.3195 15.6191L14.7993 15.2402L14.2791 15.6191C14.2117 15.6682 14.122 15.6015 14.1468 15.5212L14.3398 14.9001L13.8254 14.513C13.7589 14.4628 13.7931 14.3553 13.8759 14.3546L14.5153 14.3496L14.7176 13.7316C14.7438 13.6516 14.8548 13.6516 14.881 13.7316Z" fill="#F5F5F5"/>
<path d="M17.3439 2.44725L17.5461 3.06529L18.1855 3.07025C18.2684 3.07099 18.3026 3.17857 18.2361 3.22866L17.7217 3.61563L17.9146 4.23673C17.9397 4.3171 17.8497 4.38376 17.7823 4.33461L17.2622 3.95577L16.742 4.33461C16.6746 4.38376 16.5849 4.3171 16.6097 4.23673L16.8027 3.61563L16.2883 3.22866C16.2217 3.17846 16.256 3.07088 16.3388 3.07025L16.9782 3.06529L17.1805 2.44725C17.2065 2.36719 17.3177 2.36719 17.3439 2.44725Z" fill="#F5F5F5"/>
<path d="M17.3439 5.68032L17.5461 6.29837L18.1855 6.30332C18.2684 6.30406 18.3026 6.41154 18.2361 6.46174L17.7217 6.84881L17.9146 7.46991C17.9397 7.55028 17.8497 7.61694 17.7823 7.56779L17.2622 7.18894L16.742 7.56779C16.6746 7.61683 16.5849 7.55028 16.6097 7.46991L16.8027 6.84881L16.2883 6.46174C16.2217 6.41154 16.256 6.30406 16.3388 6.30332L16.9782 6.29837L17.1805 5.68032C17.2065 5.60038 17.3177 5.60038 17.3439 5.68032Z" fill="#F5F5F5"/>
<path d="M17.3439 8.91343L17.5461 9.53148L18.1855 9.53644C18.2684 9.53717 18.3026 9.64465 18.2361 9.69485L17.7217 10.0819L17.9146 10.703C17.9397 10.7834 17.8497 10.85 17.7823 10.8009L17.2622 10.4221L16.742 10.8009C16.6746 10.8499 16.5849 10.7835 16.6097 10.703L16.8027 10.0819L16.2883 9.69485C16.2217 9.64465 16.256 9.53717 16.3388 9.53644L16.9782 9.53148L17.1805 8.91343C17.2065 8.83338 17.3177 8.83338 17.3439 8.91343Z" fill="#F5F5F5"/>
<path d="M17.3439 12.1465L17.5461 12.7645L18.1855 12.7695C18.2684 12.7702 18.3026 12.8778 18.2361 12.9279L17.7217 13.315L17.9146 13.9361C17.9397 14.0164 17.8497 14.0831 17.7823 14.0339L17.2622 13.6551L16.742 14.0339C16.6746 14.083 16.5849 14.0164 16.6097 13.9361L16.8027 13.315L16.2883 12.9279C16.2217 12.8779 16.256 12.7702 16.3388 12.7695L16.9782 12.7645L17.1805 12.1465C17.2065 12.0664 17.3177 12.0664 17.3439 12.1465Z" fill="#F5F5F5"/>
<path d="M17.3439 15.3795L17.5461 15.9976L18.1855 16.0025C18.2684 16.0033 18.3026 16.1108 18.2361 16.161L17.7217 16.548L17.9146 17.1691C17.9397 17.2495 17.8497 17.3162 17.7823 17.267L17.2622 16.8882L16.742 17.267C16.6746 17.316 16.5849 17.2495 16.6097 17.1691L16.8027 16.548L16.2883 16.161C16.2217 16.1108 16.256 16.0033 16.3388 16.0025L16.9782 15.9976L17.1805 15.3795C17.2065 15.2996 17.3177 15.2996 17.3439 15.3795Z" fill="#F5F5F5"/>
<path d="M19.8067 4.03237L20.009 4.65042L20.6484 4.65537C20.7312 4.65611 20.7655 4.76369 20.6989 4.81379L20.1846 5.20086L20.3775 5.82196C20.4026 5.90233 20.3126 5.96899 20.2452 5.91984L19.7251 5.54099L19.2049 5.91984C19.1375 5.96888 19.0478 5.90233 19.0726 5.82196L19.2656 5.20086L18.7512 4.81379C18.6846 4.76359 18.7189 4.65611 18.8017 4.65537L19.4411 4.65042L19.6434 4.03237C19.6695 3.95243 19.7806 3.95243 19.8067 4.03237Z" fill="#F5F5F5"/>
<path d="M19.8067 7.26548L20.009 7.88353L20.6484 7.88849C20.7312 7.88923 20.7655 7.9968 20.6989 8.0469L20.1846 8.43397L20.3775 9.05508C20.4026 9.13544 20.3126 9.2021 20.2452 9.15295L19.7251 8.77411L19.2049 9.15295C19.1375 9.20199 19.0478 9.13555 19.0726 9.05508L19.2656 8.43397L18.7512 8.0469C18.6846 7.99691 18.7189 7.88923 18.8017 7.88849L19.4411 7.88353L19.6434 7.26548C19.6695 7.18543 19.7806 7.18543 19.8067 7.26548Z" fill="#F5F5F5"/>
<path d="M19.8067 10.4985L20.009 11.1166L20.6484 11.1215C20.7312 11.1223 20.7655 11.2297 20.6989 11.2799L20.1846 11.667L20.3775 12.2881C20.4026 12.3685 20.3126 12.4351 20.2452 12.386L19.7251 12.0071L19.2049 12.386C19.1375 12.435 19.0478 12.3685 19.0726 12.2881L19.2656 11.667L18.7512 11.2799C18.6846 11.2297 18.7189 11.1223 18.8017 11.1215L19.4411 11.1166L19.6434 10.4985C19.6695 10.4185 19.7806 10.4185 19.8067 10.4985Z" fill="#F5F5F5"/>
<path d="M19.8067 13.7316L20.009 14.3496L20.6484 14.3546C20.7312 14.3553 20.7655 14.4628 20.6989 14.513L20.1846 14.9001L20.3775 15.5212C20.4026 15.6015 20.3126 15.6682 20.2452 15.6191L19.7251 15.2402L19.2049 15.6191C19.1375 15.6682 19.0478 15.6015 19.0726 15.5212L19.2656 14.9001L18.7512 14.513C18.6846 14.4628 18.7189 14.3553 18.8017 14.3546L19.4411 14.3496L19.6434 13.7316C19.6695 13.6516 19.7806 13.6516 19.8067 13.7316Z" fill="#F5F5F5"/>
<path d="M22.2699 2.44725L22.4721 3.06529L23.1116 3.07025C23.1944 3.07099 23.2286 3.17857 23.1621 3.22866L22.6477 3.61563L22.8407 4.23673C22.8657 4.3171 22.7758 4.38376 22.7084 4.33461L22.1882 3.95577L21.668 4.33461C21.6006 4.38376 21.5109 4.3171 21.5357 4.23673L21.7287 3.61563L21.2143 3.22866C21.1478 3.17846 21.182 3.07088 21.2648 3.07025L21.9043 3.06529L22.1065 2.44725C22.1326 2.36719 22.2436 2.36719 22.2699 2.44725Z" fill="#F5F5F5"/>
<path d="M22.2699 5.68032L22.4721 6.29837L23.1116 6.30332C23.1944 6.30406 23.2286 6.41154 23.1621 6.46174L22.6477 6.84881L22.8407 7.46991C22.8657 7.55028 22.7758 7.61694 22.7084 7.56779L22.1882 7.18894L21.668 7.56779C21.6006 7.61683 21.5109 7.55028 21.5357 7.46991L21.7287 6.84881L21.2143 6.46174C21.1478 6.41154 21.182 6.30406 21.2648 6.30332L21.9043 6.29837L22.1065 5.68032C22.1326 5.60038 22.2436 5.60038 22.2699 5.68032Z" fill="#F5F5F5"/>
<path d="M22.2699 8.91343L22.4721 9.53148L23.1116 9.53644C23.1944 9.53717 23.2286 9.64465 23.1621 9.69485L22.6477 10.0819L22.8407 10.703C22.8657 10.7834 22.7758 10.85 22.7084 10.8009L22.1882 10.4221L21.668 10.8009C21.6006 10.8499 21.5109 10.7835 21.5357 10.703L21.7287 10.0819L21.2143 9.69485C21.1478 9.64465 21.182 9.53717 21.2648 9.53644L21.9043 9.53148L22.1065 8.91343C22.1326 8.83338 22.2436 8.83338 22.2699 8.91343Z" fill="#F5F5F5"/>
<path d="M22.2699 12.1465L22.4721 12.7645L23.1116 12.7695C23.1944 12.7702 23.2286 12.8778 23.1621 12.9279L22.6477 13.315L22.8407 13.9361C22.8657 14.0164 22.7758 14.0831 22.7084 14.0339L22.1882 13.6551L21.668 14.0339C21.6006 14.083 21.5109 14.0164 21.5357 13.9361L21.7287 13.315L21.2143 12.9279C21.1478 12.8779 21.182 12.7702 21.2648 12.7695L21.9043 12.7645L22.1065 12.1465C22.1326 12.0664 22.2436 12.0664 22.2699 12.1465Z" fill="#F5F5F5"/>
<path d="M22.2699 15.3795L22.4721 15.9976L23.1116 16.0025C23.1944 16.0033 23.2286 16.1108 23.1621 16.161L22.6477 16.548L22.8407 17.1691C22.8657 17.2495 22.7758 17.3162 22.7084 17.267L22.1882 16.8882L21.668 17.267C21.6006 17.316 21.5109 17.2495 21.5357 17.1691L21.7287 16.548L21.2143 16.161C21.1478 16.1108 21.182 16.0033 21.2648 16.0025L21.9043 15.9976L22.1065 15.3795C22.1326 15.2996 22.2436 15.2996 22.2699 15.3795Z" fill="#F5F5F5"/>
</svg>
