<svg width="53" height="35" viewBox="0 0 53 35" fill="none" xmlns="http://www.w3.org/2000/svg">
<path d="M0 30.8927C0 33.0848 1.77705 34.862 3.96931 34.862H49.0307C51.2228 34.862 53 33.085 53 30.8927V27.5516H0V30.8927Z" fill="#C8414B"/>
<path d="M49.0307 0.137939H3.96931C1.77705 0.137939 0 1.91499 0 4.10725V7.44832H53V4.10725C53 1.91499 51.2229 0.137939 49.0307 0.137939Z" fill="#C8414B"/>
<path d="M53 7.44861H0V27.5524H53V7.44861Z" fill="#FFD250"/>
<path d="M22.3881 17.5L23.1629 14.0135C23.2343 13.6924 22.9899 13.3878 22.6609 13.3878H22.1152C21.7863 13.3878 21.542 13.6925 21.6132 14.0135L22.3881 17.5Z" fill="#C8414B"/>
<path d="M23.3019 15.6719H21.4744V23.4387H23.3019V15.6719Z" fill="#F5F5F5"/>
<path d="M23.7582 14.7589H21.0168V15.6728H23.7582V14.7589Z" fill="#FAB446"/>
<path d="M23.7589 17.5H19.1897V18.4138H23.7589V17.5Z" fill="#C8414B"/>
<path d="M23.7585 21.1551L21.0171 20.2414V19.3275L23.7585 20.2414V21.1551Z" fill="#C8414B"/>
<path d="M8.68102 17.5L9.45584 14.0135C9.52727 13.6924 9.28286 13.3878 8.95389 13.3878H8.40816C8.07929 13.3878 7.83499 13.6925 7.90621 14.0135L8.68102 17.5Z" fill="#C8414B"/>
<path d="M11.8794 14.7585C11.3748 14.7585 10.9656 15.1677 10.9656 15.6724V21.612C10.9656 22.7222 12.0018 24.8103 15.5345 24.8103C19.0673 24.8103 20.1035 22.7223 20.1035 21.612V15.6724C20.1035 15.1677 19.6943 14.7585 19.1897 14.7585H11.8794Z" fill="#F5F5F5"/>
<path d="M15.5345 19.3275H10.9656V15.6724C10.9656 15.1677 11.3748 14.7585 11.8794 14.7585H15.5345V19.3275Z" fill="#C8414B"/>
<path d="M15.5347 19.3275H20.1036V21.612C20.1036 22.8738 19.0809 23.8965 17.8192 23.8965C16.5574 23.8965 15.5347 22.8738 15.5347 21.612V19.3275Z" fill="#C8414B"/>
<path d="M10.9656 19.3275H15.5345V21.612C15.5345 22.8738 14.5118 23.8965 13.2501 23.8965C11.9883 23.8965 10.9656 22.8738 10.9656 21.612V19.3275Z" fill="#FAB446"/>
<path d="M14.6206 23.4293V19.3275H13.7068V23.8504C14.0467 23.7815 14.3539 23.631 14.6206 23.4293Z" fill="#C8414B"/>
<path d="M12.793 23.8504V19.3275H11.8792V23.4293C12.146 23.631 12.4531 23.7815 12.793 23.8504Z" fill="#C8414B"/>
<path d="M14.6208 17.5H11.8794V18.4138H14.6208V17.5Z" fill="#FFB441"/>
<path d="M14.6208 15.6719H11.8794V16.5857H14.6208V15.6719Z" fill="#FAB446"/>
<path d="M14.1635 16.2153H12.3359V17.8708H14.1635V16.2153Z" fill="#FAB446"/>
<path d="M9.59441 15.6719H7.76685V23.4387H9.59441V15.6719Z" fill="#F5F5F5"/>
<path d="M10.0517 22.9833H7.3103V23.8971H10.0517V22.9833Z" fill="#FAB446"/>
<path d="M10.0517 14.7589H7.3103V15.6728H10.0517V14.7589Z" fill="#FAB446"/>
<path d="M10.5089 23.8962H6.85376V24.8101H10.5089V23.8962Z" fill="#5064AA"/>
<path d="M24.2158 22.9833H21.4744V23.8971H24.2158V22.9833Z" fill="#FAB446"/>
<path d="M24.2154 23.8962H20.5603V24.8101H24.2154V23.8962Z" fill="#5064AA"/>
<path d="M18.2763 13.8448H12.7935V14.7587H18.2763V13.8448Z" fill="#FAB446"/>
<path d="M15.992 11.1038H15.0781V13.8452H15.992V11.1038Z" fill="#FFB441"/>
<path d="M14.6207 12.4741C13.8648 12.4741 13.25 11.8592 13.25 11.1034C13.25 10.3476 13.8649 9.73279 14.6207 9.73279C15.3765 9.73279 15.9913 10.3477 15.9913 11.1034C15.9914 11.8592 15.3765 12.4741 14.6207 12.4741ZM14.6207 10.6465C14.3686 10.6465 14.1637 10.8513 14.1637 11.1034C14.1637 11.3555 14.3685 11.5604 14.6207 11.5604C14.8728 11.5604 15.0776 11.3556 15.0776 11.1034C15.0776 10.8514 14.8728 10.6465 14.6207 10.6465Z" fill="#F5F5F5"/>
<path d="M16.4483 12.4741C15.6924 12.4741 15.0776 11.8592 15.0776 11.1034C15.0776 10.3476 15.6925 9.73279 16.4483 9.73279C17.2042 9.73279 17.8189 10.3477 17.8189 11.1034C17.8189 11.8592 17.2041 12.4741 16.4483 12.4741ZM16.4483 10.6465C16.1962 10.6465 15.9914 10.8513 15.9914 11.1034C15.9914 11.3555 16.1961 11.5604 16.4483 11.5604C16.7003 11.5604 16.9052 11.3556 16.9052 11.1034C16.9051 10.8514 16.7003 10.6465 16.4483 10.6465Z" fill="#F5F5F5"/>
<path d="M18.2759 13.3879C17.5201 13.3879 16.9053 12.773 16.9053 12.0173C16.9053 11.2614 17.5202 10.6466 18.2759 10.6466C19.0318 10.6466 19.6466 11.2615 19.6466 12.0173C19.6466 12.773 19.0317 13.3879 18.2759 13.3879ZM18.2759 11.5603C18.0239 11.5603 17.819 11.7651 17.819 12.0173C17.819 12.2693 18.0238 12.4742 18.2759 12.4742C18.528 12.4742 18.7328 12.2694 18.7328 12.0173C18.7328 11.7651 18.528 11.5603 18.2759 11.5603Z" fill="#F5F5F5"/>
<path d="M12.793 13.3879C12.0371 13.3879 11.4224 12.773 11.4224 12.0173C11.4224 11.2614 12.0372 10.6466 12.793 10.6466C13.5489 10.6466 14.1637 11.2615 14.1637 12.0173C14.1638 12.773 13.5489 13.3879 12.793 13.3879ZM12.793 11.5603C12.541 11.5603 12.3361 11.7651 12.3361 12.0173C12.3361 12.2693 12.5408 12.4742 12.793 12.4742C13.0452 12.4742 13.2499 12.2693 13.2499 12.0172C13.2499 11.7651 13.0452 11.5603 12.793 11.5603Z" fill="#F5F5F5"/>
<path d="M18.2759 21.1552V21.6121C18.2759 21.8641 18.071 22.069 17.819 22.069C17.567 22.069 17.3621 21.8641 17.3621 21.6121V21.1552H18.2759ZM19.1896 20.2415H16.4482V21.6121C16.4482 22.368 17.0631 22.9828 17.8189 22.9828C18.5748 22.9828 19.1895 22.3679 19.1895 21.6121V20.2415H19.1896Z" fill="#FAB446"/>
<path d="M17.8189 18.4139C17.3142 18.4139 16.905 18.0047 16.905 17.5V16.5862C16.905 16.0816 17.3142 15.6724 17.8189 15.6724C18.3235 15.6724 18.7327 16.0816 18.7327 16.5862V17.5C18.7327 18.0047 18.3235 18.4139 17.8189 18.4139Z" fill="#FFA0D2"/>
<path d="M15.5345 20.6977C16.2915 20.6977 16.9051 20.0841 16.9051 19.3271C16.9051 18.5701 16.2915 17.9564 15.5345 17.9564C14.7775 17.9564 14.1638 18.5701 14.1638 19.3271C14.1638 20.0841 14.7775 20.6977 15.5345 20.6977Z" fill="#5064AA"/>
<path d="M15.992 9.27563H15.0781V12.017H15.992V9.27563Z" fill="#FAB446"/>
<path d="M12.793 13.8449L11.8792 12.9311L12.4144 12.3958C13.2418 11.5684 14.3641 11.1035 15.5344 11.1035C16.7046 11.1035 17.8268 11.5684 18.6544 12.3958L19.1896 12.9311L18.2758 13.8449H12.793Z" fill="#C8414B"/>
<path d="M15.5346 13.3877C15.7869 13.3877 15.9915 13.1831 15.9915 12.9308C15.9915 12.6784 15.7869 12.4739 15.5346 12.4739C15.2822 12.4739 15.0776 12.6784 15.0776 12.9308C15.0776 13.1831 15.2822 13.3877 15.5346 13.3877Z" fill="#FFD250"/>
<path d="M13.7064 13.3877C13.9588 13.3877 14.1633 13.1831 14.1633 12.9308C14.1633 12.6784 13.9588 12.4739 13.7064 12.4739C13.4541 12.4739 13.2495 12.6784 13.2495 12.9308C13.2495 13.1831 13.4541 13.3877 13.7064 13.3877Z" fill="#FFD250"/>
<path d="M17.3615 13.3877C17.6138 13.3877 17.8184 13.1831 17.8184 12.9308C17.8184 12.6784 17.6138 12.4739 17.3615 12.4739C17.1091 12.4739 16.9045 12.6784 16.9045 12.9308C16.9045 13.1831 17.1091 13.3877 17.3615 13.3877Z" fill="#FFD250"/>
<path d="M11.8795 17.5H7.3103V18.4138H11.8795V17.5Z" fill="#C8414B"/>
<path d="M7.3103 21.1551L10.0516 20.2414V19.3275L7.3103 20.2414V21.1551Z" fill="#C8414B"/>
</svg>
